<?xml version="1.0" standalone="no"?><!DOCTYPE svg PUBLIC "-//W3C//DTD SVG 1.1//EN" "http://www.w3.org/Graphics/SVG/1.1/DTD/svg11.dtd"><svg class="icon" width="32px" height="32.00px" viewBox="0 0 1024 1024" version="1.1" xmlns="http://www.w3.org/2000/svg"><path d="M304.64481 454.541472c11.357653-2.557237 18.500316-13.836095 15.950241-25.199888-5.368254-23.882896-6.18485-48.38489-2.408858-72.817301 16.499756-106.71732 116.707839-180.112787 223.510094-163.584378 25.191702 3.888556 48.933381 12.434169 70.546588 25.383059 10.033497 5.988376 22.967038 2.733245 28.941088-7.263412 5.959723-9.996658 2.718919-22.952712-7.269553-28.933925-26.320406-15.752744-55.189863-26.143375-85.766191-30.878203-129.64138-20.071088-251.590582 69.125219-271.668833 198.837206-4.550634 29.6881-3.564168 59.452948 2.959396 88.499437 2.212384 9.806324 10.920702 16.478267 20.572506 16.478267a21.011504 21.011504 0 0 0 4.633522-0.520862z" fill="#d81e06" /><path d="M891.746125 611.848903c0-30.15268-11.850885-56.768821-31.759268-75.15555 19.97899-46.130551 31.195427-96.868018 31.195427-150.234353 0-209.243187-170.207203-379.478019-379.44425-379.478019-209.249326 0-379.485182 170.234832-379.485182 379.478019 0 125.337363 61.221218 236.450797 155.187145 305.590342 0.676404 3.748363 1.521653 7.524355 2.606355 11.243043 3.579518 12.202902 8.525147 23.15021 14.767303 32.646473 34.02691 51.878451 72.59115 110.663181 110.859655 167.96719 38.761738 58.009066 94.839829 94.064164 166.71262 107.196226 9.060335 1.605564 17.330679 2.676964 25.305288 3.706408 3.833297 0.520862 7.679898 1.014094 11.497845 1.563609 3.001351 0.435928 6.043634 0.647752 9.102291 0.647751h42.847791c3.38202 0 6.761994-0.239453 10.103082-0.788967 3.761666-0.619099 7.536635-1.211592 11.326954-1.803062 6.510261-1.014094 12.990846-2.028189 19.459152-3.099588 90.795731-15.668833 159.301851-83.948803 174.672902-174.039477 3.128241-18.007083 4.762458-36.239293 4.818739-54.063206 0.22615-67.632218 0.22615-76.10006 0.196475-103.448886a30865.513851 30865.513851 0 0 1 0.029676-67.927953zM195.517608 386.459c0-174.652436 141.5772-316.19996 316.221449-316.19996 174.618667 0 316.179494 141.547524 316.179494 316.19996 0 44.320326-9.285462 86.427245-25.756565 124.710077-2.959396-0.274246-5.917768-0.492209-8.890467-0.492209a98.519631 98.519631 0 0 0-26.617164 3.656265c-9.847256-9.305928-21.640836-16.597993-34.871136-21.148626-2.212384-0.732686-4.397138-1.338482-6.580869-1.930975 10.41212-21.063693 17.950801-43.967286 21.74112-68.413 8.115825-52.583507-1.156334-104.934724-26.86992-151.439804-5.622033-10.17983-18.45836-13.885214-28.658656-8.248855-10.188016 5.628173-13.8934 18.471663-8.243738 28.665819 21.134301 38.225527 28.77122 81.312771 22.065507 124.577048-4.227269 27.285382-14.062246 52.25912-27.983275 74.169085-1.266851 0.295735-2.5644 0.428764-3.790319 0.767478-8.664316-7.968469-19.090762-14.548315-30.996906-19.543063a63.375273 63.375273 0 0 0-29.631818-7.35551h-2.113123c0-27.151329 0-52.935524-0.041956-73.613431 0-51.357589-34.097518-91.267474-84.892289-99.25641a91.440413 91.440413 0 0 0-14.188112-1.127681c-49.66709 0-93.304873 39.917048-97.291666 88.97118-0.478906 6.3056-0.478906 11.603246-0.478906 15.850981v160.583028c-19.697582-11.326954-37.479538-25.967366-52.302099-43.684855-7.453747-8.926282-20.740329-10.124571-29.70038-2.649334-8.933445 7.475237-10.117408 20.760795-2.649334 29.695263 10.28523 12.314442 21.810705 23.304729 34.181429 33.167334-25.61535 6.53789-48.103482 22.910757-62.107399 45.850166-0.535188 0.900508-0.958836 1.831714-1.466395 2.717896-63.983115-57.853524-104.266507-141.43496-104.266507-234.477867z m632.753983 396.527289c-0.070608 14.540129-1.452069 29.278778-3.944837 43.678715-10.851117 63.601423-59.051813 111.267954-122.893712 122.272566-10.045777 1.690498-20.189791 3.212152-30.293897 4.846369h-42.847791c-11.483519-1.703801-23.092905-2.902091-34.534469-4.945629-52.668441-9.623152-95.444602-35.125938-125.457089-80.07355-37.183803-55.668769-73.887676-111.562665-110.578247-167.501587-3.100612-4.719479-5.311972-10.202342-6.918559-15.639157-6.862278-23.629116 7.073078-48.0472 30.335852-52.541552 3.38202-0.648775 6.650454-1.001815 9.764368-1.001815 14.132854 0 26.193516 6.396674 35.421673 18.345797 15.372075 19.894056 29.913227 40.409258 44.792069 60.67068a421.126498 421.126498 0 0 0 4.761435 6.439653c0.394995-0.183171 0.81762-0.310061 1.212615-0.492209v-5.665012-316.122189c0-3.592821 0-7.143686 0.281409-10.729344 1.351785-16.674741 17.626414-30.807595 34.224407-30.807595 1.436719 0 2.916417 0.119727 4.354159 0.344854 19.655626 3.092425 31.462509 16.739209 31.46251 36.810297 0.041955 56.261262 0 150.439013 0.09926 206.756557 0 2.930743 0.167822 5.988376 1.042747 8.750274 1.437742 4.56496 4.876044 7.00247 9.735716 7.36779h1.04377c4.66422 0 8.101499-2.33825 9.933214-6.494912 1.17066-2.592029 1.240245-5.777575 1.240244-8.735947 0-19.345565-0.056282-25.460831-0.056281-25.460831l-0.057305 18.008107c0-0.070608 0-6.243179 0.042978-25.502786 0-12.682832 4.269225-23.770332 15.089643-31.294688 3.97349-2.704593 8.708318-4.396115 13.090107-6.565519h14.216765c0.521885 0.380669 0.902554 0.845249 1.452068 1.02842 18.499292 6.396674 27.080721 18.373426 27.080721 37.789599-0.042979 19.078483-0.042979 25.149746-0.042978 25.149746l-0.02763-18.541247v25.177375c0 1.818411-0.070608 3.579518 0.14224 5.340624 0.760315 6.060007 5.437838 10.102059 11.326953 10.102059 0.380669 0 0.732686 0 1.099029-0.027629 6.242155-0.548491 9.806324-4.80339 10.243275-12.525243v-0.184195c0.027629-0.449231 0.027629-0.943486 0.027629-1.408066v-11.961403c0.268106-8.298997 2.310621-16.092481 7.636919-22.854475 7.003494-8.848511 17.204813-13.709206 27.842059-13.709205 3.8466 0 7.763809 0.648775 11.596083 1.944278 14.597434 5.02954 23.939177 19.205372 23.939177 36.140032-0.014326 19.078483-0.041955 25.165096-0.041955 25.165096-0.014326 0-0.028653-18.5699-0.057305-18.5699 0 0-0.027629 6.057961-0.02763 25.177375 0 2.184754 0 4.382812 0.239454 6.524587 0.704033 5.747899 4.439093 8.707295 9.736739 9.749019a8.053404 8.053404 0 0 0 1.662869 0.154519c4.21192 0 8.678643-2.92972 10.102058-7.156989 0.915857-2.747572 1.169637-5.790878 1.169637-8.750274 0-2.592029 0-4.818739 0.014326-6.692409v12.835304c0.057305 0 0.112563-3.85888 0.14224-14.990383 0.055258-6.171547 1.168613-12.765719 3.634776-18.401055 5.564728-12.653156 18.3591-20.262446 31.547444-20.262446 2.451837 0 4.833066 0.281409 7.269552 0.81762 17.105552 3.720734 27.911644 18.246536 27.911644 37.042587-0.056282 102.249574 0.113587 68.885766-0.182148 171.179342z" fill="#d81e06" /></svg>